<svg width="78" height="52" viewBox="0 0 78 52" fill="none" xmlns="http://www.w3.org/2000/svg"><path d="M77.5 12.392 64 2v20.784l13.5-10.392Z" fill="#B5D1FC"/><path d="M0 12h64" stroke="#B5D1FC" stroke-width="10"/><path opacity=".8" d="M18.3 10.95V9l1.45-1h1.7v7h-1.9v-4.9l-1.25.85Zm7.004.55c0-2.2 1.5-3.7 3.5-3.7s3.5 1.5 3.5 3.7-1.5 3.7-3.5 3.7-3.5-1.5-3.5-3.7Zm1.95 0c0 1.35.64 2 1.55 2s1.55-.65 1.55-2-.64-2-1.55-2-1.55.65-1.55 2Zm5.853 0c0-2.2 1.5-3.7 3.5-3.7s3.5 1.5 3.5 3.7-1.5 3.7-3.5 3.7-3.5-1.5-3.5-3.7Zm1.95 0c0 1.35.64 2 1.55 2s1.55-.65 1.55-2-.64-2-1.55-2-1.55.65-1.55 2Zm5.853 0c0-2.2 1.5-3.7 3.5-3.7s3.5 1.5 3.5 3.7-1.5 3.7-3.5 3.7-3.5-1.5-3.5-3.7Zm1.95 0c0 1.35.64 2 1.55 2s1.55-.65 1.55-2-.64-2-1.55-2-1.55.65-1.55 2Zm5.703 1.25h1.9c.06.17.15.31.27.43.21.21.58.42 1.18.42.75 0 1.05-.29 1.05-.6 0-.53-1.03-.69-2.07-.96-1.05-.29-2.08-.77-2.08-2.04 0-.99.89-1.91 2.2-2.15V6.9h1.7v1c.91.25 1.41.77 1.7 1.24.17.27.29.55.35.86h-1.9a.832.832 0 0 0-.2-.3c-.16-.15-.44-.3-.95-.3-.71 0-.95.25-.95.5 0 .4.58.59 1.32.76 1.2.29 2.83.66 2.83 2.24 0 1.11-.79 1.89-2.2 2.2v1h-1.7v-1a3.08 3.08 0 0 1-1.99-1.34c-.21-.31-.37-.65-.46-1.01Z" fill="#0D50C3"/><path d="M0 41.392 13.5 31v20.784L0 41.392Z" fill="#B5D1FC"/><path d="M77.5 41h-64" stroke="#B5D1FC" stroke-width="10"/><path opacity=".8" d="M21.35 44v-1.6l2.35-1.45c1.1-.67 1.5-1.11 1.5-1.65 0-.45-.34-.8-.9-.8-.51 0-.78.2-.93.4-.09.12-.14.25-.17.4h-1.9c.07-.47.23-.88.47-1.25.4-.61 1.15-1.25 2.53-1.25 1.8 0 2.85 1.05 2.85 2.4 0 1.21-.75 1.96-1.95 2.65l-.7.4-.4.15v.1l.7-.1h2.35V44h-5.8Zm9.405-3.5c0-2.2 1.5-3.7 3.5-3.7s3.5 1.5 3.5 3.7-1.5 3.7-3.5 3.7-3.5-1.5-3.5-3.7Zm1.95 0c0 1.35.64 2 1.55 2s1.55-.65 1.55-2-.64-2-1.55-2-1.55.65-1.55 2Zm5.853 0c0-2.2 1.5-3.7 3.5-3.7s3.5 1.5 3.5 3.7-1.5 3.7-3.5 3.7-3.5-1.5-3.5-3.7Zm1.95 0c0 1.35.64 2 1.55 2s1.55-.65 1.55-2-.64-2-1.55-2-1.55.65-1.55 2Zm5.853 0c0-2.2 1.5-3.7 3.5-3.7s3.5 1.5 3.5 3.7-1.5 3.7-3.5 3.7-3.5-1.5-3.5-3.7Zm1.95 0c0 1.35.64 2 1.55 2s1.55-.65 1.55-2-.64-2-1.55-2-1.55.65-1.55 2Zm5.703 1.25h1.9c.06.17.15.31.27.43.21.21.58.42 1.18.42.75 0 1.05-.29 1.05-.6 0-.53-1.03-.69-2.07-.96-1.05-.29-2.08-.77-2.08-2.04 0-.99.89-1.91 2.2-2.15v-.95h1.7v1c.91.25 1.41.77 1.7 1.24.17.27.29.55.35.86h-1.9a.832.832 0 0 0-.2-.3c-.16-.15-.44-.3-.95-.3-.71 0-.95.25-.95.5 0 .4.58.59 1.32.76 1.2.29 2.83.66 2.83 2.24 0 1.11-.79 1.89-2.2 2.2v1h-1.7v-1a3.08 3.08 0 0 1-1.99-1.34c-.21-.31-.37-.65-.46-1.01Z" fill="#0D50C3"/></svg>