<svg width="106" height="40" viewBox="0 0 106 40" fill="none" xmlns="http://www.w3.org/2000/svg"><path d="M57.293 31.29h-.039a.128.128 0 0 0-.039-.007H57l-.217-.016a.194.194 0 0 1-.046.024c-.016.005-.023.015-.023.03.005.073.005.143 0 .21h.007c-.025.078-.059.194-.1.349-.036.15-.077.308-.124.473-.041.16-.08.316-.116.465-.036.145-.064.256-.085.334.005.026.01.041.016.047.005 0 .015.005.03.015l.101.023c.057 0 .155.013.294.04.14.02.294.03.464.03a.415.415 0 0 0 .155-.023l.061-.016a.59.59 0 0 1 .109-.007.14.14 0 0 1 .1.046c.036.026.057.06.062.1l-.023.079c-.02.04-.047.067-.077.077a.435.435 0 0 1-.132.016h-.17a2.853 2.853 0 0 0-.232-.008h-.341a4.734 4.734 0 0 0-.146-.016 10.87 10.87 0 0 0-.232-.038h-.07a.214.214 0 0 0-.116 0c-.015.005-.023.012-.023.023l-.077.271c.005.057.005.101 0 .132 0 .031.002.067.007.109a.3.3 0 0 1-.015.132c-.016.04-.031.085-.047.131l-.046.132a.274.274 0 0 0-.015.124l-.1.334c-.032.077-.055.15-.07.217-.01.067-.016.132-.016.194v.186c0 .057-.005.119-.015.186a.994.994 0 0 1-.124.411.687.687 0 0 1-.201.218.447.447 0 0 1-.186.093.666.666 0 0 1-.1.023c-.026 0-.06-.023-.1-.07a1.524 1.524 0 0 1-.117-.178 4.228 4.228 0 0 1-.108-.256 1.185 1.185 0 0 1-.054-.295 2.736 2.736 0 0 0-.016-.109v-.116c0-.114.01-.235.031-.364.02-.135.06-.293.116-.474l.093-.248c.015-.072.039-.155.07-.248l.077-.721-.232-.117a1.51 1.51 0 0 1-.054-.217c0-.02.008-.039.023-.054a.17.17 0 0 1 .07-.031.255.255 0 0 1 .077-.016.372.372 0 0 1 .046-.007c.01 0 .02.002.031.007.01.006.023.008.039.008.02 0 .049-.005.085-.015.036-.01.051-.044.046-.101.01-.021.031-.093.062-.217.036-.13.075-.28.116-.45a40.923 40.923 0 0 0 .263-1.055h-.008a.517.517 0 0 0-.162-.047.676.676 0 0 0-.147-.015 1.346 1.346 0 0 0-.147-.008 2.074 2.074 0 0 1-.162-.023.846.846 0 0 0-.255.039.963.963 0 0 0-.387.194c-.036.036-.054.07-.054.1l-.14.031a1.375 1.375 0 0 1-.077-.294c-.01-.28.096-.489.317-.629.222-.144.508-.217.859-.217h.038c.016 0 .054.005.116.016l.387.054c.01-.02.041-.034.093-.039a1.14 1.14 0 0 1 .2-.015c.11 0 .22.005.333.015.114.005.194.008.24.008.057 0 .103.01.14.031.04.015.072.057.092.124l.054.085.109.078c.123.057.317.114.58.17l.27.047.155-.008a.166.166 0 0 1 .108.024c.041.02.075.028.1.023.026.01.047.015.063.015.02 0 .04.003.062.008.02 0 .046.003.077.008.03.005.075.018.131.039l.21.03c.071.006.143.014.216.024a.313.313 0 0 1 .178.015l.108.008c.17.016.325.024.464.024.216 0 .433-.019.65-.055.216-.036.391-.085.525-.147.088-.041.168-.08.24-.116a.465.465 0 0 1 .209-.055c.082 0 .123.023.123.07v.039a.954.954 0 0 1-.255.31 1.746 1.746 0 0 1-.386.233 2.848 2.848 0 0 1-.488.155c-.175.041-.355.07-.54.085a.17.17 0 0 1-.055.008h-.023a.72.72 0 0 1-.1.008h-.094a.99.99 0 0 1-.178.016l-.123-.016a7.096 7.096 0 0 1-.572-.055c-.191-.025-.382-.054-.573-.085-.01 0-.02.003-.03.008h-.024a.515.515 0 0 1-.085-.008 1.44 1.44 0 0 1-.131-.03l-.055-.016a1.915 1.915 0 0 0-.17-.024 9.34 9.34 0 0 0-.162-.03h-.116a.433.433 0 0 1-.14-.008ZM65.21 30.81c.031.005.07.015.116.03.047.011.083.016.108.016.021 0 .055.005.1.016a.823.823 0 0 1 .156.03.797.797 0 0 1 .147.055c.04.015.061.034.061.054 0 .01-.002.016-.007.016.103.03.188.064.255.1a1.092 1.092 0 0 1 .27.179c.031.026.06.047.086.062.025.01.056.036.092.078a.339.339 0 0 1 .078.085 2.634 2.634 0 0 1 .093.217c.046.088.09.189.131.303a.961.961 0 0 1 .077.294.07.07 0 0 0-.007.031v.07c.005.02.007.044.007.07 0 .15-.013.31-.038.48-.021.166-.044.327-.07.482a.12.12 0 0 1-.015.046l-.031.109a.725.725 0 0 1-.047.14l-.03.155-.07.271c.072.036.172.07.301.1.13.032.253.047.371.047.083 0 .148-.002.194-.007a.57.57 0 0 0 .116-.024.355.355 0 0 0 .1-.046c.031-.026.078-.06.14-.101a.345.345 0 0 0 .046-.108c.01-.047.02-.088.03-.125l.04-.1c.015-.026.036-.04.061-.04.135 0 .21.019.225.055a.325.325 0 0 1 .023.14c0 .026-.016.056-.047.093l-.054.038-.023.024-.2.217-.187.093-.193.1c-.026 0-.038.003-.038.009l-.024.007a.807.807 0 0 0-.085.008h-.224a.594.594 0 0 1-.17-.03 1.834 1.834 0 0 0-.178-.047l-.286-.094-.023.063c0 .01-.008.03-.024.062a2.112 2.112 0 0 1-.054.085c-.015.03-.03.06-.046.085a.17.17 0 0 0-.023.047c0 .01-.008.028-.023.054a.17.17 0 0 0-.024.047v.007c0 .031-.01.055-.03.07 0 .005-.01.031-.032.078-.02.041-.046.09-.077.147a2.013 2.013 0 0 1-.093.178c-.03.057-.056.101-.077.132a.804.804 0 0 1-.085.132 7.84 7.84 0 0 1-.34.411.503.503 0 0 1-.1.086.265.265 0 0 1-.117.108.69.69 0 0 1-.14.054l-.022.008-.085.062a.65.65 0 0 1-.186.062 1.164 1.164 0 0 1-.193.031.379.379 0 0 1-.14.031h-.185c-.19-.02-.364-.07-.518-.147a1.968 1.968 0 0 1-.418-.28 2.074 2.074 0 0 1-.325-.38 3.344 3.344 0 0 1-.24-.441 1.828 1.828 0 0 1-.115-.412c-.021-.134-.04-.253-.054-.356 0-.078.01-.197.03-.357.016-.166.037-.328.062-.489.031-.144.075-.294.132-.45.062-.16.129-.31.2-.45.073-.144.145-.273.217-.387a1.87 1.87 0 0 1 .21-.264l.061-.023a.257.257 0 0 1 .062-.008h.015c.078-.072.168-.142.271-.21.103-.067.214-.118.333-.154a.193.193 0 0 1-.016-.086v-.03a.231.231 0 0 0-.008-.055v-.054c0-.093.01-.168.031-.225a.448.448 0 0 1 .209-.225l.116-.055c.036 0 .054-.007.054-.023a.742.742 0 0 1 .163-.054.71.71 0 0 1 .193-.031c.026 0 .044.003.054.008Zm-.317 1.722a.433.433 0 0 1-.077-.163l-.07.225-.07.217a1.223 1.223 0 0 1-.108.24l-.077.155a2.423 2.423 0 0 0-.062.186l-.054.187a1.73 1.73 0 0 0-.07.201l-.062.28a5.81 5.81 0 0 0-.038.294c-.01.098-.016.184-.016.256v.14c0 .051.005.103.016.155l.015.14c0 .046.013.108.039.186.026.072.057.147.093.225a1.81 1.81 0 0 0 .263.396c.015.01.033.03.054.061.041.052.09.09.147.117a.477.477 0 0 0 .185.038.593.593 0 0 0 .302-.085 1.15 1.15 0 0 0 .278-.233c.088-.103.17-.222.248-.356.082-.14.157-.29.224-.45.057-.104.11-.22.162-.35.052-.134.085-.237.101-.31a.21.21 0 0 1-.054-.038.5.5 0 0 0-.054-.047 2.887 2.887 0 0 1-.41-.287l-.178-.155-.124-.147a1.412 1.412 0 0 0-.108-.155 2.002 2.002 0 0 0-.108-.156l-.116-.21a11.898 11.898 0 0 1-.124-.255 5.318 5.318 0 0 0-.147-.303Zm.905-1.35a.398.398 0 0 0-.147 0 .182.182 0 0 0-.077.039l-.031.03a.488.488 0 0 0-.147.233c0 .073-.01.15-.031.233-.02.083-.044.13-.07.14-.02.026-.03.075-.03.147 0 .062.004.132.015.21l.03.217.024.093c.01.02.015.036.015.046 0 .01-.002.016-.007.016l-.008-.008v.008c0 .026.005.052.015.077 0 .006-.005.008-.015.008-.016 0-.023.003-.023.008l.007.015.016.031v.008c.02.036.026.07.015.101-.01.031-.01.044 0 .039.005.02.016.046.031.077.02.031.041.055.062.07h.016v.016c0 .02.005.049.015.085a.788.788 0 0 0 .046.093c.016.01.031.034.047.07.02.036.044.054.07.054l-.008.008c0 .01.005.023.015.039.01.015.028.026.054.03h.008c0 .016-.002.024-.008.024 0-.005-.005-.008-.015-.008h-.008c.01.026.031.055.062.086.03.025.06.051.085.077.057.041.124.1.201.178.083.073.168.145.255.218a.25.25 0 0 0 .1.077l.009-.023v-.008a2.898 2.898 0 0 0 .046-.178 5.05 5.05 0 0 0 .077-.303c.026-.113.05-.225.07-.333.02-.109.03-.191.03-.248v-.101a.358.358 0 0 0 .009-.07v-.186a.13.13 0 0 0 .007-.039c0-.15-.007-.264-.023-.341a1.052 1.052 0 0 0-.039-.194 3.957 3.957 0 0 1-.046-.17.665.665 0 0 0-.062-.164l-.038-.054-.024-.015a.198.198 0 0 0-.046-.047.208.208 0 0 1-.039-.054 1.061 1.061 0 0 0-.27-.155c-.103-.042-.17-.09-.201-.148a.228.228 0 0 0-.024-.03c0-.011-.005-.019-.015-.024ZM75.134 34.246l.178.209c.077.067.157.14.24.217.087.078.172.155.255.233l.286.287.31.28c.092.087.182.18.27.278.093.099.175.184.248.256.082.109.152.176.208.202a.597.597 0 0 1 .163.14c.062.087.136.16.224.217.026.01.052.023.077.038.026.021.054.042.085.063.068.036.12.08.155.131a.68.68 0 0 0 .147.117c.031.02.057.036.077.046.021.016.042.029.062.039l.062.031.07.054a.235.235 0 0 0 .077.055l.093.046c.03.01.062.031.093.062l.085.086c.093.082.18.142.263.178.046.031.087.062.123.093a.96.96 0 0 0 .116.085.535.535 0 0 0 .248.171.4.4 0 0 1 .131.047c.005.015.042.023.109.023a1.2 1.2 0 0 0 .139.03l.1.016c-.02.01-.02.029 0 .055.021.02.031.038.031.054a.365.365 0 0 0 .085-.008.398.398 0 0 0 .078-.008c-.016.01-.008.018.023.024l.023.015a.897.897 0 0 0 .255-.085L80.34 38c0-.01.033-.034.1-.07a.477.477 0 0 0 .109-.21c.02-.077.036-.163.046-.256l-.015-.077a.115.115 0 0 1 .085-.031.14.14 0 0 1 .1.046.49.49 0 0 1 .077.21c.01.046.016.093.016.14 0 .051.002.098.008.139.02.041.03.072.03.093a.134.134 0 0 1-.007.078l-.023.1c.015.114-.024.238-.116.373a.54.54 0 0 1-.031.124c-.01.041-.023.083-.039.124a.954.954 0 0 1-.085.116c-.031.042-.06.083-.085.124l-.147.124a1.04 1.04 0 0 1-.325.156c-.113.03-.23.051-.348.062l-.108-.016a1.2 1.2 0 0 1-.193 0c-.062 0-.13-.002-.202-.008l-.224-.046a1.854 1.854 0 0 1-.51-.217 4.523 4.523 0 0 1-.495-.38 6.77 6.77 0 0 1-.333-.287 10.1 10.1 0 0 1-.348-.334 12.085 12.085 0 0 1-.34-.372 8.744 8.744 0 0 1-.302-.38 5.965 5.965 0 0 1-.231-.31 13.748 13.748 0 0 0-.294-.388.503.503 0 0 0-.062-.078.151.151 0 0 1-.07-.07.85.85 0 0 0-.054-.093 1.808 1.808 0 0 1-.132-.202c-.16-.211-.304-.408-.432-.589a55.667 55.667 0 0 1-.34-.496 12.584 12.584 0 0 0-.233-.272 5.68 5.68 0 0 1-.193-.263l-.085-.093a.712.712 0 0 1-.008.1v.101l-.015.365c0 .103-.008.207-.024.31-.02.103-.043.199-.07.287a.521.521 0 0 1-.084.194l-.047.163a.386.386 0 0 1-.038.093.44.44 0 0 1-.039.046.451.451 0 0 0-.062.14.521.521 0 0 0-.046.163.768.768 0 0 1-.023.116c-.006.041-.01.078-.016.109a.27.27 0 0 0 .008.077l.03.062c.006.021.011.037.016.047l.016.046c0 .016-.008.026-.024.032l-.046.023a.149.149 0 0 1-.077.023.216.216 0 0 0-.109.031.095.095 0 0 1-.054 0 .145.145 0 0 0-.046.008c-.046 0-.067-.008-.062-.023.01-.016 0-.024-.03-.024l-.094.086c-.01.01-.03.015-.062.015-.051 0-.08-.01-.085-.031l-.015-.008L73.37 37c-.036-.005-.07-.028-.1-.07a.587.587 0 0 1-.062-.233 1.807 1.807 0 0 1-.024-.193l-.015-.233a.56.56 0 0 0 0-.132 1.15 1.15 0 0 0-.008-.14c0-.01.003-.018.008-.023 0-.083.002-.165.008-.248.005-.088.007-.163.007-.225a1.096 1.096 0 0 1 0-.186c.005-.078.018-.178.039-.303.016-.15.033-.312.054-.488l.078-.559.092-.605.039-.403.062-.457c.026-.16.049-.319.07-.474a.35.35 0 0 1 .015-.093l.03-.108a1.52 1.52 0 0 0 .04-.117.2.2 0 0 0 .007-.093.288.288 0 0 1 0-.186.322.322 0 0 0 .023-.186l-.007-.039a.397.397 0 0 1 .015-.217l.016-.078a.479.479 0 0 1 .046-.162c.005-.026.01-.05.016-.07.01-.02.02-.039.03-.055a.143.143 0 0 1 .078-.07l.023-.015c.015-.015.039-.023.07-.023h.046c.005 0 .034-.005.085-.016h.046a.145.145 0 0 1 .047-.007c.02 0 .044.025.07.077.03.047.043.085.038.117.02.01.039.023.054.038l.132.256c.03.037.056.073.077.109l.046.085v.047l.016.108.015.101a.554.554 0 0 0 .07-.085.707.707 0 0 1 .077-.109l.1-.116a.123.123 0 0 0 .032-.047.248.248 0 0 1 .03-.038.87.87 0 0 1 .063-.117.676.676 0 0 1 .1-.108.603.603 0 0 1 .194-.171 1.42 1.42 0 0 1 .286-.116.897.897 0 0 1 .34-.04l.124-.03h.154l.116.039c.16.015.292.056.395.124.118.057.211.108.278.155.067.046.131.106.193.178a.29.29 0 0 1 .054.093c.016.031.031.068.047.109a.329.329 0 0 1 .062.085l.062.093c.03.037.059.073.085.109l.046.116c.02.12.031.246.031.38-.01.12-.033.238-.07.357a1.692 1.692 0 0 1-.255.543 3.245 3.245 0 0 1-.162.21c-.119.129-.23.24-.333.333l-.185.163a1.535 1.535 0 0 1-.194.124 1.562 1.562 0 0 1-.185.093 2.136 2.136 0 0 0-.31.116l-.162.062-.108.07c-.026.01-.062.029-.109.054a.24.24 0 0 0-.084.063l-.34.124Zm-.456-.698.046.03c.02.006.039.014.054.024a.25.25 0 0 0 .062.015c.016-.025.042-.036.078-.03h.046a.114.114 0 0 0 .054-.032l.016-.015.015-.008c.052-.02.1-.039.147-.054.047-.02.093-.044.14-.07a.387.387 0 0 0 .092-.039 1.44 1.44 0 0 0 .093-.062 1.33 1.33 0 0 0 .193-.186c.062-.072.13-.155.201-.248.119-.166.22-.344.302-.535.088-.192.15-.386.186-.582l.023-.163c.005-.046.007-.09.007-.132v-.132a.611.611 0 0 0-.007-.17 1.244 1.244 0 0 0-.023-.155l-.047-.086-.023-.015a.384.384 0 0 0-.194-.109.453.453 0 0 0-.247.008l-.062.046-.054.047a3.19 3.19 0 0 0-.108.116 4.325 4.325 0 0 0-.124.163 1.318 1.318 0 0 0-.255.31l-.147.326a2.336 2.336 0 0 1-.14.28l-.069.131-.054.148-.03.077a.562.562 0 0 1-.032.086v.015l-.038.163c-.021.13-.047.274-.078.434-.026.16-.033.295-.023.404Zm.356-.008c-.006 0-.013.005-.024.015l.024-.015ZM83.47 31.477a.084.084 0 0 0 .016-.047c0-.02.005-.039.015-.054l.077-.303c.031-.103.06-.201.085-.294l.062-.404c.016-.103.029-.196.039-.279a.126.126 0 0 0 .015-.054.204.204 0 0 0 .008-.062c0-.016.003-.029.008-.039a.126.126 0 0 1 .054-.078c.036-.03.09-.046.162-.046a.486.486 0 0 1 .155-.023.48.48 0 0 1 .155.007.27.27 0 0 1 .077.008.816.816 0 0 1 .333.365.59.59 0 0 1 .085.232v.062c.005.021.007.044.007.07a.441.441 0 0 1 .008.085v.148a.697.697 0 0 1 0 .147.878.878 0 0 1-.015.155l-.047.272a.246.246 0 0 1-.015.07c-.01.03-.02.06-.031.085a.294.294 0 0 0-.016.093l-.015.093a.392.392 0 0 1 0 .155v.07a.68.68 0 0 1-.046.17c-.021.047-.044.104-.07.171l-.046.217v.109l-.016.023c0 .01-.002.018-.008.024 0 .01.005.025.016.046a.61.61 0 0 0-.023.093l-.016.093-.008.062-.061.28c-.016.093-.031.193-.047.302l-.03.217a.392.392 0 0 0-.009.078c0 .02-.005.041-.015.062-.01 0-.01.01 0 .03l-.023.133a1.06 1.06 0 0 1-.062.279l-.093.333c-.026.104-.052.202-.077.295a4.357 4.357 0 0 0-.062.248c-.01.047-.02.09-.031.132a.378.378 0 0 0 0 .109c0 .051.008.095.023.132l.047.085c.01 0 .023.013.038.039.016.026.031.036.047.03a.708.708 0 0 0 .123-.1 3.455 3.455 0 0 0 .217-.21l.07-.07c.067-.066.128-.142.185-.224.057-.088.119-.17.186-.248.051-.063.103-.132.154-.21.052-.077.106-.152.163-.225.056-.077.11-.155.162-.232.057-.078.108-.153.155-.225l.27-.466.086-.17c.03-.057.059-.114.085-.171l.061-.14a1.62 1.62 0 0 0 .093-.263c.02-.083.042-.168.062-.256l.07-.342.015-.085.124-.45c.005-.005.008-.013.008-.023 0-.031.005-.062.015-.093a.109.109 0 0 0 .008-.047l.023-.093c0-.02.005-.051.016-.093a.574.574 0 0 0 .007-.093.271.271 0 0 1 .124-.202.476.476 0 0 1 .209-.061.408.408 0 0 1 .093-.008l.038.039c.13.01.243.051.34.124.032.026.06.054.086.085.03.03.056.067.077.108.067.104.11.233.132.388v.055a.174.174 0 0 1 .007.054c0 .01-.002.018-.008.023v.14l-.038.31c-.01.093-.026.194-.047.303a6.606 6.606 0 0 1-.054.31l-.023.1-.046.241-.116.489-.031.14-.031.139-.07.28-.07.247-.046.194-.062.303-.07.395-.03.186c-.016.088-.029.171-.039.249a.804.804 0 0 0-.008.186c.005.015.018.026.04.03a.17.17 0 0 0 .053-.007h.031a.913.913 0 0 0 .224-.07c.062-.041.124-.085.186-.132.067-.046.132-.095.193-.147l.07-.085.232-.264a.205.205 0 0 0 .054-.039 3.287 3.287 0 0 0 .302-.512h-.008l.03-.046a.123.123 0 0 0 .04-.093c.005-.021.012-.034.023-.04l.108-.209a.994.994 0 0 0 .077-.201c.021-.067.042-.101.062-.101h.016a.097.097 0 0 1 .038-.023.12.12 0 0 1 .047-.016c.036 0 .062.02.077.062 0 .01-.002.026-.008.047a.234.234 0 0 1-.023.077.793.793 0 0 1-.054.132l-.1.202h.007l-.03.077c-.047.12-.101.23-.163.334a6.84 6.84 0 0 1-.248.388l-.023.023-.03.031-.024.023a4.291 4.291 0 0 1-.147.17l-.108.133c-.01.01-.013.023-.008.039.005.01.003.02-.008.03l-.216.187-.078.085a.442.442 0 0 1-.07.07.206.206 0 0 0-.053.039l-.047.03a1.426 1.426 0 0 1-.24.124 1.139 1.139 0 0 1-.333.1.758.758 0 0 1-.107.01h-.093a.225.225 0 0 1-.085-.016.07.07 0 0 1-.03-.008h-.024l-.078-.046a.283.283 0 0 1-.07-.055.768.768 0 0 0-.1-.062.328.328 0 0 1-.085-.085 1.359 1.359 0 0 1-.147-.287 1.72 1.72 0 0 1-.07-.403v-.225c0-.062.003-.124.008-.187a.406.406 0 0 0-.007-.1c.01-.083.018-.171.023-.264.01-.098.023-.184.039-.256l.046-.372c.02-.13.028-.223.023-.28l-.108.21-.085.14-.201.34a.253.253 0 0 0-.031.04l-.031.046a1.22 1.22 0 0 0-.116.186l-.209.295-.247.326-.047.062-.108.163-.116.155-.131.155a3.17 3.17 0 0 1-.263.264c-.098.087-.191.152-.279.194a.636.636 0 0 1-.147.054c-.046.015-.093.02-.139.015a.479.479 0 0 1-.186-.038.322.322 0 0 1-.146-.063.804.804 0 0 1-.225-.248 2.215 2.215 0 0 1-.185-.48 1.008 1.008 0 0 0-.023-.132l-.04-.233a2.04 2.04 0 0 1-.007-.31c.005-.114.013-.233.023-.357l.062-.497c.016-.118.034-.24.054-.364.026-.124.052-.253.078-.388.01-.072.025-.142.046-.21l.1-.465c.016-.072.029-.137.04-.194.015-.062.03-.119.046-.17l.007-.07c.021-.083.042-.173.062-.271.02-.104.044-.2.07-.287l.023-.194ZM93.913 33.858c.062-.316.142-.62.24-.915l.302-.861v-.047a.148.148 0 0 0 .007-.046v-.117c0-.088.013-.165.04-.232.025-.207.053-.404.084-.59.031-.186.06-.372.085-.558v-.078a.126.126 0 0 0 .008-.039v-.046c-.052 0-.088.008-.108.023l-.085.054a.247.247 0 0 1-.109.047c-.036 0-.051-.034-.046-.101a.79.79 0 0 1 .193-.341c.088-.088.222-.132.402-.132.067 0 .13.02.186.062a.654.654 0 0 1 .155.14.865.865 0 0 1 .116.186c.036.062.067.119.093.17l.123.303a.81.81 0 0 1 .023.108l.016.101c.015.166.002.36-.039.582-.041.217-.082.421-.124.613-.092.217-.19.421-.293.612l-.147.481.355-.581c.135-.212.271-.406.41-.582.145-.181.286-.331.426-.45.144-.124.283-.186.417-.186a.38.38 0 0 1 .201.062c.073.036.134.08.186.132.057.051.1.106.131.163a.384.384 0 0 1 .062.14c.005.061 0 .147-.015.255-.016.109-.034.22-.054.334-.016.114-.031.217-.047.31a1.325 1.325 0 0 0-.023.17v.008c-.057.109-.11.228-.162.357a14.312 14.312 0 0 0-.247.745c-.032.119-.058.222-.078.31.036-.047.075-.116.116-.21.046-.093.095-.196.147-.31.056-.113.118-.232.185-.356.073-.125.153-.238.24-.342.242-.269.42-.49.534-.667.118-.18.206-.325.263-.434.062-.109.113-.184.154-.225.042-.046.109-.07.201-.07.098 0 .191.02.279.062a.75.75 0 0 1 .24.148.691.691 0 0 1 .17.217.682.682 0 0 1 .085.256.328.328 0 0 1 0 .1.443.443 0 0 0 0 .117c.01.083.023.168.038.256.021.088.037.178.047.271a6.69 6.69 0 0 1-.016.117 1.153 1.153 0 0 1-.023.116c.016.026.01.057-.015.093l-.016.023v.008c0-.005-.002.003-.007.023a1.231 1.231 0 0 1-.024.062l-.1.287-.031.117c-.01.057-.02.108-.031.155a.441.441 0 0 1-.046.124l-.008.031a.628.628 0 0 0-.078.194 3.76 3.76 0 0 0-.054.256c-.015.088-.03.168-.046.24a.54.54 0 0 1-.047.148c-.03.036-.046.095-.046.178a.654.654 0 0 1-.015.21c-.006.005-.008.03-.008.077v.163c.005.057.008.114.008.17.005.057.007.096.007.117-.005.083-.002.173.008.271a.56.56 0 0 0 .046.186l.356.745c.005.01.02.029.047.054.03.031.067.065.108.101a32.609 32.609 0 0 1 .294.264c.093.041.183.072.27.093.181.016.317 0 .41-.047a.623.623 0 0 0 .217-.155.501.501 0 0 0 .093-.163c.02-.051.046-.077.077-.077.046 0 .088.018.124.054a.187.187 0 0 1 .069.117.13.13 0 0 1-.007.077c-.006.026-.011.039-.016.039l-.039.039c-.005.026-.033.051-.085.077a.934.934 0 0 1-.162.086 1.244 1.244 0 0 1-.17.077.66.66 0 0 0-.116.062c-.021.02-.08.023-.178.008a5.822 5.822 0 0 1-.657-.148 8.668 8.668 0 0 1-.225-.07l-.07-.054c-.035-.005-.113-.049-.231-.131a9.437 9.437 0 0 1-.743-.605 2.196 2.196 0 0 1-.224-.225.609.609 0 0 1-.108-.225 9.94 9.94 0 0 1-.07-.248.437.437 0 0 0-.038-.101 1.043 1.043 0 0 1-.062-.318v-.016a1.117 1.117 0 0 1-.008-.24 9.807 9.807 0 0 1 .093-.714c.025-.124.051-.235.077-.333l.016-.055c.015-.051.028-.098.038-.14a.81.81 0 0 1 .031-.1l.008-.008a.074.074 0 0 0 .03-.062.454.454 0 0 0 .016-.124c.005-.047.008-.098.008-.155v-.248a.62.62 0 0 1 .03-.21c.058-.108.099-.25.125-.426.025-.181.059-.355.1-.52-.036.02-.07.039-.1.054a.12.12 0 0 0-.062.062l-.395.411c-.046.063-.08.112-.1.148a1.055 1.055 0 0 1-.054.108 1.373 1.373 0 0 1-.24.31.503.503 0 0 0-.077.148 4.757 4.757 0 0 0-.21.667l-.107.202c.005.041-.024.129-.086.263-.061.13-.136.267-.224.411-.082.14-.165.267-.247.38-.083.114-.142.171-.178.171a.717.717 0 0 1-.14-.015.545.545 0 0 1-.154-.078.617.617 0 0 1-.131-.147.53.53 0 0 1-.062-.24c-.01-.11-.003-.23.023-.365a4.627 4.627 0 0 1 .255-.884l.17-.458c.02-.109.039-.215.054-.318.021-.104.036-.207.047-.31.03-.109.062-.218.093-.326.03-.109.059-.207.085-.295.025-.093.046-.173.061-.24a.857.857 0 0 0 .024-.163v-.047a.726.726 0 0 0-.008-.1.478.478 0 0 0-.008-.093v-.055a2.886 2.886 0 0 0-.232.248c-.087.104-.18.223-.278.357-.093.13-.188.269-.286.419-.098.145-.194.29-.286.434a2.15 2.15 0 0 0-.356.574c-.088.217-.157.44-.209.667a8.275 8.275 0 0 0-.124.644c-.025.202-.049.37-.07.504a.712.712 0 0 1-.138.303.722.722 0 0 0-.132.248.482.482 0 0 0-.016.116.665.665 0 0 1-.007.109.186.186 0 0 1-.031.085c-.01.02-.036.031-.078.031-.118 0-.219-.06-.301-.178a1.098 1.098 0 0 1-.155-.481.64.64 0 0 1-.015-.202v-.023a5.02 5.02 0 0 1 .046-.869c.041-.305.098-.607.17-.907Z" fill="#262526"/><path fill-rule="evenodd" clip-rule="evenodd" d="M57.21 1.174c-2.845.978-4.165 2.064-3.748 3.082.252.617-.656 3.184-2.266 6.405-3.05 6.102-3.123 7.865-.462 11.054 2.056 2.464 4.52 3.777 6.57 3.501 1.403-.189 5.795-2.49 7.972-4.176 1.205-.934 1.12-.995 2.218 1.58l.864 2.027 4.166-.594c3.225-.46 4.883-1.06 7.337-2.658 5.651-3.677 6.88-7.423 4.032-12.302C80.776 3.75 76.996 1.129 72.056.88c-2.578-.13-3.267.71-2.014 2.453.93 1.292.242 5.397-1.28 7.637-.441.648-.614 1.154-.386 1.123.23-.03.177.32-.116.781-.293.46-1.013 1.839-1.6 3.063-.586 1.223-1.656 2.534-2.379 2.914-.78.409-1.205.446-1.047.091.497-1.114-.823-1.094-3.38.051-6.59 2.952-7.257 2.787-5.895-1.45.633-1.97 1.005-2.236 4.877-3.495 3.764-1.224 6.14-2.781 5.988-3.922-.1-.746-2.948-1.307-4.578-.902-1.902.472-2.103-.062-.667-1.764.58-.687 1.006-1.614.946-2.06-.06-.444.098-.803.351-.798.254.007 2.166-.25 4.251-.571 4.208-.647 4.516-1.415 1.135-2.828-1.926-.805-6.752-.82-9.052-.03Zm34.277 1.229c.07 1.176-2.32 8.051-5.825 16.743l-.996 2.471 1.49 1.597c1.523 1.63 4.03 2.93 3.908 2.027-.037-.275.61-2.316 1.436-4.536l1.503-4.035 1.78 3.4c1.712 3.271 3.104 4.707 4.603 4.751.388.012.983.045 1.323.074 2.988.26 4.219-1.458 1.824-2.544-.713-.323-2.021-2.167-2.97-4.186l-1.695-3.61 1.343-1.405c3.666-3.839 6.548-7.57 6.754-8.744.168-.96-.25-1.621-1.568-2.48-1.841-1.202-3.372-1.464-2.529-.434.259.316.126 1.299-.297 2.183-.422.884-.59 1.583-.373 1.554.389-.053-.181.558-4.212 4.517l-2.036 2 1.159-3.232c1.086-3.026 1.087-3.335.02-4.864-.88-1.258-3.539-2.777-4.603-2.63-.067.009-.084.631-.039 1.383ZM79.253 7.235c2.356 1.648 2.495 1.891 2.038 3.55-.269.979-.906 2.409-1.416 3.178-.827 1.248-1.872 2.043-7.093 5.402-1.345.865-1.315.883.665.41 1.14-.273 2.518-.765 3.061-1.095.701-.423 1.026-.326 1.114.334.069.512-.12 1.132-.42 1.378-.323.266-.447-.013-.307-.688.193-.928.108-.978-.471-.274-.39.473-1.246.933-1.903 1.02-1.103.15-1.108.21-.07.776 1.013.552.976.642-.373.903-.824.16-1.528.068-1.564-.203-.037-.272-.461-.53-.943-.574-.63-.058-.102-1.933 1.888-6.689 1.521-3.635 2.733-7.173 2.692-7.863-.097-1.668.145-1.634 3.102.435ZM55.01 9.837c.017.124-.393.662-.91 1.194-.851.875-.875.857-.257-.197.65-1.108 1.1-1.492 1.167-.997Zm-3.456 4.366c-.161.937-.073.908.604-.198 1.027-1.679 1.18-.58.187 1.345-.418.81-.795 2.225-.837 3.143-.043.918-.211 1.831-.375 2.029-.36.434-.307-2.824.075-4.588.269-1.244.261-1.243-.52.033-1.024 1.673-1.183.583-.194-1.332.908-1.758 1.318-1.924 1.06-.432Zm45.751-3.32c.017.124-.392.661-.91 1.193-.85.876-.875.857-.256-.197.65-1.107 1.1-1.492 1.166-.997Zm-32.853 6.442c.456.116.97.025 1.143-.202.173-.226-.2-.32-.83-.21-.695.123-.818.285-.313.412Zm5.523-.666c.036.268-.273 1.067-.688 1.777-.699 1.196-.718 1.163-.27-.46.486-1.749.836-2.23.958-1.317Zm19.032-.886c-.127.537-.377.865-.556.728-.178-.136-.185-.56-.014-.943.463-1.04.834-.9.57.215Zm-26.527 4.22c.017.13-.374.291-.869.358-.495.066-.935-.141-.978-.462-.043-.32.348-.48.868-.357.521.124.961.331.979.461Z" fill="#262526"/><path d="m12.037 32.006 3.349 3.348a6.451 6.451 0 0 0 9.109 0l.138-.137-7.904-7.902-4.692 4.69ZM4.58 24.554a6.448 6.448 0 0 1 0-9.108l3.352-3.351 4.692 4.691-7.907 7.905-.138-.137Z" fill="#262526"/><path d="m9.407 20 3.211 3.21-4.692 4.692-3.211-3.21L9.407 20ZM24.634 35.219l3.212-3.21-4.693-4.692-3.211 3.21 4.692 4.692ZM15.387 4.64a6.451 6.451 0 0 1 9.11 0l3.352 3.351-4.693 4.691-7.906-7.905.137-.137Z" fill="#262526"/><path d="m19.942 9.468-3.214 3.214-4.692-4.692 3.214-3.213 4.692 4.691ZM31.955 27.902l3.349-3.348a6.448 6.448 0 0 0 0-9.107l-.138-.138-7.904 7.902 4.693 4.691Z" fill="#262526"/><path d="m35.166 15.307-3.214-3.213-4.693 4.691L30.474 20l4.692-4.692Z" fill="#262526"/></svg>