<svg width="59" height="36" viewBox="0 0 59 36" fill="none" xmlns="http://www.w3.org/2000/svg"><rect width="59" height="36" rx="18" fill="#F2F8FF"/><path d="M21.199 12.2c1.904 0 3.346 1.386 3.346 3.248 0 1.848-1.428 3.234-3.346 3.234h-2.016V22h-1.596v-9.8h3.612Zm-.07 4.956c1.05 0 1.778-.728 1.778-1.708 0-.994-.728-1.722-1.778-1.722h-1.946v3.43h1.946Zm8.515-4.956c2.884 0 4.97 2.058 4.97 4.9 0 2.842-2.086 4.9-4.97 4.9H26.2v-9.8h3.444Zm-.042 8.302c1.988 0 3.374-1.428 3.374-3.402 0-1.974-1.386-3.388-3.374-3.388h-1.806v6.79h1.806Zm12.549-6.79h-4.046v2.772h3.682v1.484h-3.682V22h-1.596v-9.8h5.642v1.512Z" fill="#262526"/></svg>