<svg width="40" height="40" viewBox="0 0 40 40" fill="none" xmlns="http://www.w3.org/2000/svg"><rect width="40" height="40" rx="20" fill="#fff"/><path d="M27.125 27.306a65.454 65.454 0 0 1-14.25 0c-.822-.094-1.63-.857-1.76-1.68a36.996 36.996 0 0 1 0-11.25c.13-.825.937-1.588 1.76-1.682a65.454 65.454 0 0 1 14.25 0c.822.094 1.629.857 1.76 1.681a36.996 36.996 0 0 1 0 11.25c-.131.824-.938 1.587-1.76 1.681Z" stroke="#0D50C3" stroke-width="1.5" stroke-linecap="round" stroke-linejoin="round"/><path d="m23 20-4.5-3v6l4.5-3Z" stroke="#0D50C3" stroke-width="1.5" stroke-linecap="round" stroke-linejoin="round"/></svg>